<?xml version="1.0" encoding="utf-8"?>
<!-- Generator: Adobe Illustrator 27.2.0, SVG Export Plug-In . SVG Version: 6.00 Build 0)  -->
<svg version="1.1" id="Capa_1" xmlns="http://www.w3.org/2000/svg" xmlns:xlink="http://www.w3.org/1999/xlink" x="0px" y="0px"
	 viewBox="0 0 50 50" style="enable-background:new 0 0 50 50;" xml:space="preserve">
<style type="text/css">
	.st0{fill:#61CE70;}
</style>
<path class="st0" d="M14,4C8.5,4,4,8.5,4,14v22c0,5.5,4.5,10,10,10h22c5.5,0,10-4.5,10-10V14c0-5.5-4.5-10-10-10H14z M14,6h22
	c4.4,0,8,3.6,8,8v22c0,4.4-3.6,8-8,8H14c-4.4,0-8-3.6-8-8V14C6,9.6,9.6,6,14,6z M13,15c-1.6,0-3,1.4-3,3v14c0,1.6,1.4,3,3,3h24
	c1.6,0,3-1.4,3-3V18c0-1.6-1.4-3-3-3H13z M13.4,17h23.2l-8.9,8.9c-1.5,1.5-3.9,1.5-5.4,0L13.4,17z M38,18.4v13.2L31.4,25L38,18.4z
	 M12,18.4l6.6,6.6L12,31.6V18.4z M30,26.4l6.6,6.6H13.4l6.6-6.6l0.9,0.9c2.3,2.3,5.9,2.3,8.2,0L30,26.4z"/>
</svg>
