<?xml version="1.0" encoding="utf-8"?>
<!-- Generator: Adobe Illustrator 27.2.0, SVG Export Plug-In . SVG Version: 6.00 Build 0)  -->
<svg version="1.1" id="Capa_1" xmlns="http://www.w3.org/2000/svg" xmlns:xlink="http://www.w3.org/1999/xlink" x="0px" y="0px"
	 viewBox="0 0 286 76" style="enable-background:new 0 0 286 76;" xml:space="preserve">
<style type="text/css">
	.st0{fill:none;stroke:#FFFFFF;stroke-width:7;stroke-miterlimit:10;}
	.st1{fill:#FFFFFF;}
</style>
<g>
	<path class="st0" d="M20.2,7.7h87.14l16.15,16.86v25.13l-17.82,18.61H20.2L5.5,52.95v-28.7L20.2,7.7z M102.44,52.99V26.2H87.48
		L69.62,44.06h-9.61L42.79,26.84H26.55v26.15"/>
	<g>
		<path class="st1" d="M153.49,53.22c-1.88,0-3.61-0.43-5.21-1.3c-1.59-0.87-2.87-2.24-3.82-4.1c-0.95-1.86-1.43-4.29-1.43-7.27
			c0-2.95,0.53-5.45,1.6-7.49c1.06-2.04,2.62-3.59,4.67-4.64c2.05-1.05,4.59-1.57,7.62-1.57c0.54,0,1.07,0.02,1.57,0.05
			c0.5,0.03,0.97,0.08,1.39,0.14V15.11h7.43v37.64h-6.24l-0.44-2.68h-0.37c-0.7,0.93-1.62,1.69-2.77,2.27
			C156.33,52.93,155,53.22,153.49,53.22z M155.66,47.14c0.79,0,1.56-0.14,2.31-0.42c0.75-0.28,1.38-0.72,1.91-1.33v-12.6
			c-0.4-0.09-0.87-0.17-1.4-0.22c-0.53-0.05-1.05-0.08-1.56-0.08c-2.13,0-3.73,0.57-4.8,1.72c-1.07,1.15-1.61,3.07-1.61,5.75
			c0,1.85,0.22,3.29,0.65,4.32c0.43,1.03,1.04,1.77,1.82,2.2C153.76,46.92,154.65,47.14,155.66,47.14z"/>
		<path class="st1" d="M176.55,23.55c-1.55,0-2.71-0.34-3.46-1.01c-0.75-0.68-1.13-1.62-1.13-2.83c0-1.24,0.38-2.2,1.13-2.86
			c0.75-0.67,1.91-1,3.46-1c1.57,0,2.73,0.33,3.47,1c0.75,0.67,1.12,1.62,1.12,2.86c0,1.21-0.37,2.16-1.12,2.83
			C179.28,23.21,178.12,23.55,176.55,23.55z M172.85,52.75V27.27h7.43v25.48H172.85z"/>
		<path class="st1" d="M194.95,63.47c-1.34,0-2.74-0.09-4.2-0.26c-1.47-0.17-2.91-0.43-4.32-0.79v-5.8
			c1.44,0.39,2.84,0.68,4.19,0.86c1.35,0.19,2.61,0.28,3.77,0.28c2.5,0,4.31-0.47,5.43-1.4c1.12-0.93,1.68-2.48,1.68-4.66v-1.68
			h-0.35c-0.73,0.9-1.65,1.6-2.76,2.11c-1.11,0.5-2.39,0.76-3.83,0.76c-1.74,0-3.36-0.43-4.87-1.3c-1.51-0.87-2.72-2.22-3.65-4.04
			c-0.92-1.82-1.39-4.17-1.39-7.02c0-4.41,1.2-7.79,3.59-10.13c2.39-2.34,6.02-3.52,10.88-3.52c1.1,0,2.23,0.05,3.38,0.16
			c1.15,0.11,2.27,0.27,3.38,0.48c1.1,0.21,2.12,0.47,3.05,0.78v22.06c0,4.61-1.15,7.95-3.45,10.02
			C203.18,62.44,199.67,63.47,194.95,63.47z M197.37,46.86c0.76,0,1.51-0.12,2.24-0.37c0.73-0.25,1.36-0.62,1.89-1.12V32.82
			c-0.4-0.09-0.87-0.17-1.39-0.23c-0.52-0.06-1.07-0.09-1.64-0.09c-2.03,0-3.6,0.57-4.69,1.71c-1.09,1.14-1.64,3.04-1.64,5.69
			c0,1.79,0.22,3.19,0.65,4.22c0.43,1.02,1.04,1.74,1.82,2.14C195.38,46.66,196.3,46.86,197.37,46.86z"/>
		<path class="st1" d="M218.17,23.55c-1.55,0-2.71-0.34-3.46-1.01c-0.75-0.68-1.13-1.62-1.13-2.83c0-1.24,0.38-2.2,1.13-2.86
			c0.75-0.67,1.91-1,3.46-1c1.57,0,2.73,0.33,3.47,1c0.75,0.67,1.12,1.62,1.12,2.86c0,1.21-0.37,2.16-1.12,2.83
			C220.9,23.21,219.74,23.55,218.17,23.55z M214.47,52.75V27.27h7.43v25.48H214.47z"/>
		<path class="st1" d="M225.07,33.12v-5.85h18.28v5.85H225.07z M238.79,53.22c-3.07,0-5.44-0.76-7.09-2.29
			c-1.65-1.53-2.48-3.96-2.48-7.28V27.27l1.35-8.99h6.06v24.22c0,1.72,0.33,2.92,0.99,3.59c0.66,0.67,1.72,1,3.18,1
			c0.42,0,0.84-0.02,1.27-0.07c0.43-0.05,0.9-0.12,1.43-0.21v5.85c-0.67,0.16-1.42,0.29-2.25,0.4
			C240.41,53.16,239.59,53.22,238.79,53.22z"/>
		<path class="st1" d="M254.04,53.22c-2.61,0-4.64-0.68-6.09-2.04c-1.45-1.36-2.18-3.13-2.18-5.32c0-2.39,0.83-4.27,2.5-5.63
			c1.67-1.36,4.36-2.16,8.07-2.41l5.36-0.44l0.84,4.1l-5.43,0.44c-1.41,0.11-2.44,0.43-3.07,0.98c-0.64,0.54-0.96,1.29-0.96,2.24
			c0,0.95,0.29,1.67,0.86,2.18c0.57,0.5,1.41,0.76,2.52,0.76c0.68,0,1.38-0.13,2.1-0.38c0.71-0.26,1.37-0.67,1.96-1.25v-9.29
			c0-1.18-0.19-2.11-0.57-2.78c-0.38-0.68-1-1.15-1.85-1.43c-0.85-0.28-1.98-0.42-3.38-0.42c-0.98,0-2.08,0.08-3.32,0.24
			c-1.23,0.16-2.43,0.42-3.58,0.78v-5.61c1.26-0.36,2.62-0.62,4.1-0.79c1.47-0.17,2.86-0.26,4.15-0.26c2.67,0,4.88,0.33,6.62,1
			c1.74,0.67,3.02,1.79,3.84,3.35c0.82,1.57,1.23,3.7,1.23,6.38v15.14h-6.1l-0.54-2.54h-0.33c-0.76,1.02-1.73,1.78-2.91,2.27
			C256.7,52.97,255.42,53.22,254.04,53.22z"/>
		<path class="st1" d="M273.09,52.75V15.11h7.41v37.64H273.09z"/>
	</g>
</g>
</svg>
