<?xml version="1.0" encoding="utf-8"?>
<!-- Generator: Adobe Illustrator 27.2.0, SVG Export Plug-In . SVG Version: 6.00 Build 0)  -->
<svg version="1.1" id="Capa_1" xmlns="http://www.w3.org/2000/svg" xmlns:xlink="http://www.w3.org/1999/xlink" x="0px" y="0px"
	 viewBox="0 0 24 24" style="enable-background:new 0 0 24 24;" xml:space="preserve">
<style type="text/css">
	.st0{fill:#61CE70;}
</style>
<path class="st0" d="M12,2C6.5,2,2,6.5,2,12c0,1.8,0.5,3.5,1.3,5L2,22l5.2-1.2C8.7,21.6,10.3,22,12,22h0c5.5,0,10-4.5,10-10
	c0-2.7-1-5.2-2.9-7.1C17.2,3,14.7,2,12,2z M12,4c2.1,0,4.1,0.8,5.7,2.3C19.2,7.9,20,9.9,20,12c0,4.4-3.6,8-8,8c-1.3,0-2.7-0.3-3.8-1
	l-0.7-0.4l-0.7,0.2l-2,0.5l0.5-1.8l0.2-0.8L5.1,16C4.4,14.8,4,13.4,4,12C4,7.6,7.6,4,12,4z M8.5,7.4C8.3,7.4,8,7.4,7.8,7.7
	C7.6,7.9,6.9,8.5,6.9,9.8s0.9,2.4,1,2.6c0.1,0.2,1.7,2.8,4.3,3.8c2.1,0.8,2.5,0.7,3,0.6c0.5,0,1.5-0.6,1.7-1.2
	c0.2-0.6,0.2-1.1,0.1-1.2c-0.1-0.1-0.2-0.2-0.5-0.3c-0.2-0.1-1.5-0.7-1.7-0.8s-0.4-0.1-0.6,0.1c-0.2,0.2-0.6,0.8-0.8,1
	c-0.1,0.2-0.3,0.2-0.5,0.1c-0.2-0.1-1.1-0.4-2-1.2c-0.7-0.7-1.2-1.5-1.4-1.7c-0.1-0.2,0-0.4,0.1-0.5c0.1-0.1,0.2-0.3,0.4-0.4
	c0.1-0.1,0.2-0.3,0.2-0.4c0.1-0.2,0-0.3,0-0.4c-0.1-0.1-0.5-1.4-0.8-1.9C9.3,7.4,9.1,7.4,9,7.4C8.8,7.4,8.6,7.4,8.5,7.4z"/>
</svg>
